<svg viewBox="0 0 400 300" xmlns="http://www.w3.org/2000/svg">
  <!-- Background -->
  <rect width="400" height="300" fill="#F5E6D3"/>
  
  <!-- Potter's wheel -->
  <ellipse cx="200" cy="250" rx="120" ry="30" fill="#8B6B47"/>
  <ellipse cx="200" cy="245" rx="120" ry="30" fill="#A0826D"/>
  <ellipse cx="200" cy="240" rx="100" ry="25" fill="#8B6B47"/>
  
  <!-- Clay being shaped -->
  <path d="M200 140 Q170 145 170 170 Q170 200 180 220 Q190 230 200 230 Q210 230 220 220 Q230 200 230 170 Q230 145 200 140" 
        fill="#C65D00" stroke="#A0522D" stroke-width="2"/>
  
  <!-- Hands shaping clay -->
  <!-- Left hand -->
  <g transform="translate(150, 180)">
    <path d="M0 0 Q-10 -10 -20 -10 Q-30 -10 -30 0 Q-30 10 -20 20 L0 20 L5 15 L5 5 Z" 
          fill="#FDBCB4" stroke="#E6A08C" stroke-width="1"/>
    <!-- Fingers -->
    <ellipse cx="-15" cy="-5" rx="3" ry="8" fill="#FDBCB4" transform="rotate(-20 -15 -5)"/>
    <ellipse cx="-20" cy="0" rx="3" ry="8" fill="#FDBCB4" transform="rotate(-10 -20 0)"/>
    <ellipse cx="-22" cy="5" rx="3" ry="7" fill="#FDBCB4" transform="rotate(0 -22 5)"/>
    <ellipse cx="-20" cy="10" rx="3" ry="6" fill="#FDBCB4" transform="rotate(10 -20 10)"/>
    <!-- Thumb -->
    <ellipse cx="-5" cy="15" rx="4" ry="6" fill="#FDBCB4" transform="rotate(45 -5 15)"/>
  </g>
  
  <!-- Right hand -->
  <g transform="translate(250, 180) scale(-1, 1)">
    <path d="M0 0 Q-10 -10 -20 -10 Q-30 -10 -30 0 Q-30 10 -20 20 L0 20 L5 15 L5 5 Z" 
          fill="#FDBCB4" stroke="#E6A08C" stroke-width="1"/>
    <!-- Fingers -->
    <ellipse cx="-15" cy="-5" rx="3" ry="8" fill="#FDBCB4" transform="rotate(-20 -15 -5)"/>
    <ellipse cx="-20" cy="0" rx="3" ry="8" fill="#FDBCB4" transform="rotate(-10 -20 0)"/>
    <ellipse cx="-22" cy="5" rx="3" ry="7" fill="#FDBCB4" transform="rotate(0 -22 5)"/>
    <ellipse cx="-20" cy="10" rx="3" ry="6" fill="#FDBCB4" transform="rotate(10 -20 10)"/>
    <!-- Thumb -->
    <ellipse cx="-5" cy="15" rx="4" ry="6" fill="#FDBCB4" transform="rotate(45 -5 15)"/>
  </g>
  
  <!-- Water drops -->
  <circle cx="180" cy="150" r="2" fill="#4A90E2" opacity="0.7"/>
  <circle cx="220" cy="155" r="2" fill="#4A90E2" opacity="0.7"/>
  <circle cx="195" cy="165" r="1.5" fill="#4A90E2" opacity="0.7"/>
  
  <!-- Motion lines -->
  <path d="M150 240 Q200 235 250 240" fill="none" stroke="#8B6B47" stroke-width="1" opacity="0.5"/>
  <path d="M160 245 Q200 242 240 245" fill="none" stroke="#8B6B47" stroke-width="1" opacity="0.5"/>
  
  <!-- Heart symbol floating above -->
  <path d="M200 80 Q190 70 180 75 Q170 80 175 90 Q180 100 200 110 Q220 100 225 90 Q230 80 220 75 Q210 70 200 80" 
        fill="#FF69B4" opacity="0.3"/>
</svg>