<svg viewBox="0 0 400 300" xmlns="http://www.w3.org/2000/svg">
  <!-- Background -->
  <rect width="400" height="300" fill="#F5E6D3"/>
  
  <!-- Table surface -->
  <ellipse cx="200" cy="250" rx="180" ry="40" fill="#8B6B47"/>
  
  <!-- Teapot -->
  <ellipse cx="200" cy="180" rx="60" ry="50" fill="#2A5434"/>
  <path d="M140 180 Q120 170 120 190 Q120 210 140 200" fill="none" stroke="#2A5434" stroke-width="8" stroke-linecap="round"/>
  <path d="M260 170 Q280 160 290 170 Q300 180 290 190 Q280 200 260 190" fill="#2A5434"/>
  <ellipse cx="200" cy="130" rx="30" ry="10" fill="#1F4028"/>
  <rect x="190" y="115" width="20" height="20" rx="5" fill="#2A5434"/>
  <circle cx="200" cy="110" r="5" fill="#1F4028"/>
  
  <!-- Tea cups -->
  <!-- Cup 1 -->
  <ellipse cx="120" cy="230" rx="30" ry="25" fill="#4A6FA5"/>
  <path d="M150 230 Q165 225 165 240 Q165 255 150 250" fill="none" stroke="#4A6FA5" stroke-width="5" stroke-linecap="round"/>
  <ellipse cx="120" cy="205" rx="30" ry="8" fill="#3A5885"/>
  
  <!-- Cup 2 -->
  <ellipse cx="280" cy="230" rx="30" ry="25" fill="#4A6FA5"/>
  <path d="M250 230 Q235 225 235 240 Q235 255 250 250" fill="none" stroke="#4A6FA5" stroke-width="5" stroke-linecap="round"/>
  <ellipse cx="280" cy="205" rx="30" ry="8" fill="#3A5885"/>
  
  <!-- Steam -->
  <path d="M115 200 Q110 185 115 170" fill="none" stroke="#CCCCCC" stroke-width="2" opacity="0.6"/>
  <path d="M125 200 Q130 185 125 170" fill="none" stroke="#CCCCCC" stroke-width="2" opacity="0.6"/>
  <path d="M275 200 Q270 185 275 170" fill="none" stroke="#CCCCCC" stroke-width="2" opacity="0.6"/>
  <path d="M285 200 Q290 185 285 170" fill="none" stroke="#CCCCCC" stroke-width="2" opacity="0.6"/>
  
  <!-- Sláinte text -->
  <text x="200" y="80" font-family="Georgia, serif" font-size="36" font-style="italic" text-anchor="middle" fill="#2A5434">Sláinte</text>
  
  <!-- Decorative elements -->
  <circle cx="50" cy="50" r="3" fill="#D4A574"/>
  <circle cx="350" cy="50" r="3" fill="#D4A574"/>
  <circle cx="50" cy="250" r="3" fill="#D4A574"/>
  <circle cx="350" cy="250" r="3" fill="#D4A574"/>
</svg>