<svg viewBox="0 0 400 400" xmlns="http://www.w3.org/2000/svg">
  <defs>
    <!-- Porcelain gradient for realistic plate -->
    <radialGradient id="plateGradient" cx="50%" cy="50%">
      <stop offset="0%" style="stop-color:#FCFCFA;stop-opacity:1" />
      <stop offset="70%" style="stop-color:#F8F8F6;stop-opacity:1" />
      <stop offset="100%" style="stop-color:#F0F0EE;stop-opacity:1" />
    </radialGradient>
    
    <!-- Swallow body gradient -->
    <linearGradient id="swallowBodyGrad" x1="0%" y1="0%" x2="100%" y2="100%">
      <stop offset="0%" style="stop-color:#2A3B4C;stop-opacity:1" />
      <stop offset="50%" style="stop-color:#1C2B3A;stop-opacity:1" />
      <stop offset="100%" style="stop-color:#0F1922;stop-opacity:1" />
    </linearGradient>
    
    <!-- Wing gradient -->
    <linearGradient id="wingGrad" x1="0%" y1="0%" x2="100%" y2="0%">
      <stop offset="0%" style="stop-color:#1C2B3A;stop-opacity:1" />
      <stop offset="100%" style="stop-color:#0F1922;stop-opacity:1" />
    </linearGradient>
    
    <!-- Subtle plate texture -->
    <filter id="plateTexture">
      <feTurbulence type="fractalNoise" baseFrequency="0.9" numOctaves="4" result="turbulence" seed="5"/>
      <feColorMatrix in="turbulence" type="saturate" values="0"/>
      <feComponentTransfer>
        <feFuncA type="discrete" tableValues="0 .02 .02 .02 .02"/>
      </feComponentTransfer>
      <feComposite operator="over" in2="SourceGraphic"/>
    </filter>
    
    <!-- Soft shadow filter -->
    <filter id="softShadow" x="-50%" y="-50%" width="200%" height="200%">
      <feGaussianBlur in="SourceAlpha" stdDeviation="2"/>
      <feOffset dx="0" dy="3" result="offsetblur"/>
      <feFlood flood-color="#000000" flood-opacity="0.15"/>
      <feComposite in2="offsetblur" operator="in"/>
      <feMerge>
        <feMergeNode/>
        <feMergeNode in="SourceGraphic"/>
      </feMerge>
    </filter>
    
    <!-- Delicate brush stroke pattern -->
    <pattern id="brushStroke" x="0" y="0" width="100" height="100" patternUnits="userSpaceOnUse">
      <path d="M0 50 Q25 45 50 50 T100 50" stroke="#4A6FA5" stroke-width="0.5" fill="none" opacity="0.2"/>
      <path d="M0 60 Q25 55 50 60 T100 60" stroke="#4A6FA5" stroke-width="0.3" fill="none" opacity="0.15"/>
    </pattern>
  </defs>
  
  <!-- Plate shadow -->
  <ellipse cx="200" cy="205" rx="185" ry="185" fill="#00000008"/>
  
  <!-- Main porcelain plate with gradient and rim -->
  <circle cx="200" cy="200" r="180" fill="url(#plateGradient)" filter="url(#plateTexture)"/>
  
  <!-- Plate rim with subtle depth -->
  <circle cx="200" cy="200" r="180" fill="none" stroke="#E5E5E3" stroke-width="3"/>
  <circle cx="200" cy="200" r="177" fill="none" stroke="#F0F0EE" stroke-width="1"/>
  <circle cx="200" cy="200" r="170" fill="none" stroke="#00000010" stroke-width="0.5"/>
  
  <!-- Decorative rim pattern - Celtic-inspired -->
  <g transform="translate(200, 200)">
    <g id="rimPattern">
      <path d="M0,-165 Q5,-168 10,-165 Q5,-162 0,-165" fill="#4A6FA5" opacity="0.4"/>
      <circle cx="0" cy="-165" r="1.5" fill="#4A6FA5" opacity="0.3"/>
    </g>
    <!-- Repeat pattern around rim -->
    <use href="#rimPattern" transform="rotate(15)"/>
    <use href="#rimPattern" transform="rotate(30)"/>
    <use href="#rimPattern" transform="rotate(45)"/>
    <use href="#rimPattern" transform="rotate(60)"/>
    <use href="#rimPattern" transform="rotate(75)"/>
    <use href="#rimPattern" transform="rotate(90)"/>
    <use href="#rimPattern" transform="rotate(105)"/>
    <use href="#rimPattern" transform="rotate(120)"/>
    <use href="#rimPattern" transform="rotate(135)"/>
    <use href="#rimPattern" transform="rotate(150)"/>
    <use href="#rimPattern" transform="rotate(165)"/>
    <use href="#rimPattern" transform="rotate(180)"/>
    <use href="#rimPattern" transform="rotate(195)"/>
    <use href="#rimPattern" transform="rotate(210)"/>
    <use href="#rimPattern" transform="rotate(225)"/>
    <use href="#rimPattern" transform="rotate(240)"/>
    <use href="#rimPattern" transform="rotate(255)"/>
    <use href="#rimPattern" transform="rotate(270)"/>
    <use href="#rimPattern" transform="rotate(285)"/>
    <use href="#rimPattern" transform="rotate(300)"/>
    <use href="#rimPattern" transform="rotate(315)"/>
    <use href="#rimPattern" transform="rotate(330)"/>
    <use href="#rimPattern" transform="rotate(345)"/>
  </g>
  
  <!-- Main swallow with artistic detail -->
  <g transform="translate(200, 180) scale(2.5)" filter="url(#softShadow)">
    <!-- Tail feathers with gradient -->
    <path d="M0 15 L-8 25 Q-10 28 -12 32 Q-10 30 -8 28 L-5 22 L0 18 L5 22 L8 28 Q10 30 12 32 Q10 28 8 25 L0 15" 
          fill="url(#swallowBodyGrad)" stroke="none"/>
    
    <!-- Body -->
    <ellipse cx="0" cy="5" rx="12" ry="8" fill="url(#swallowBodyGrad)"/>
    
    <!-- Wing details - left -->
    <path d="M-10 0 Q-25 -8 -35 -18 Q-30 -12 -22 -8 Q-28 -10 -32 -15 Q-26 -8 -18 -5 L-10 0" 
          fill="url(#wingGrad)" stroke="#0F1922" stroke-width="0.3"/>
    
    <!-- Wing feather details -->
    <path d="M-18 -5 L-22 -8 M-22 -8 L-26 -10 M-26 -10 L-30 -12" 
          stroke="#0F1922" stroke-width="0.5" opacity="0.5"/>
    
    <!-- Wing details - right -->
    <path d="M10 0 Q25 -8 35 -18 Q30 -12 22 -8 Q28 -10 32 -15 Q26 -8 18 -5 L10 0" 
          fill="url(#wingGrad)" stroke="#0F1922" stroke-width="0.3"/>
    
    <!-- Wing feather details -->
    <path d="M18 -5 L22 -8 M22 -8 L26 -10 M26 -10 L30 -12" 
          stroke="#0F1922" stroke-width="0.5" opacity="0.5"/>
    
    <!-- Head -->
    <circle cx="0" cy="-3" r="6" fill="url(#swallowBodyGrad)"/>
    
    <!-- Eye -->
    <circle cx="-2" cy="-3" r="1.5" fill="#1A1A1A"/>
    <circle cx="-2.2" cy="-3.2" r="0.5" fill="#FFFFFF" opacity="0.9"/>
    
    <!-- Beak -->
    <path d="M-6 -3 L-8 -3 L-6 -2.5" fill="#FFD700" stroke="#FFA500" stroke-width="0.2"/>
    
    <!-- Chest marking -->
    <ellipse cx="0" cy="2" rx="4" ry="3" fill="#FFE4C4" opacity="0.8"/>
    <ellipse cx="0" cy="2" rx="3" ry="2" fill="#FFF8DC" opacity="0.6"/>
    
    <!-- Subtle breast feather texture -->
    <path d="M-2 1 Q0 0.5 2 1 M-2 2 Q0 1.5 2 2 M-2 3 Q0 2.5 2 3" 
          stroke="#FFE4C4" stroke-width="0.3" opacity="0.4"/>
  </g>
  
  <!-- Irish landscape elements at bottom -->
  <g transform="translate(200, 320)">
    <!-- Rolling hills -->
    <path d="M-150 0 Q-100 -10 -50 -5 Q0 -15 50 -5 Q100 -10 150 0" 
          fill="#2A5434" opacity="0.15"/>
    <path d="M-130 -5 Q-80 -15 -30 -8 Q20 -18 70 -8 Q120 -15 130 -5" 
          fill="#2A5434" opacity="0.1"/>
    
    <!-- Subtle grass texture -->
    <path d="M-100 -8 L-100 -12 M-80 -10 L-80 -14 M-60 -9 L-60 -13 M-40 -11 L-40 -15 M-20 -10 L-20 -14 M0 -12 L0 -16 M20 -11 L20 -15 M40 -10 L40 -14 M60 -9 L60 -13 M80 -10 L80 -14 M100 -8 L100 -12" 
          stroke="#2A5434" stroke-width="0.5" opacity="0.2"/>
  </g>
  
  <!-- Secondary swallows in background -->
  <g transform="translate(120, 120) scale(0.8) rotate(-25)" opacity="0.4">
    <path d="M0 0 Q-15 -6 -22 -12 Q-18 -8 -12 -6 L0 0 L12 -6 Q18 -8 22 -12 Q15 -6 0 0" 
          fill="#4A6FA5"/>
    <ellipse cx="0" cy="0" rx="6" ry="3" fill="#4A6FA5"/>
  </g>
  
  <g transform="translate(280, 130) scale(0.6) rotate(30)" opacity="0.3">
    <path d="M0 0 Q-15 -6 -22 -12 Q-18 -8 -12 -6 L0 0 L12 -6 Q18 -8 22 -12 Q15 -6 0 0" 
          fill="#4A6FA5"/>
    <ellipse cx="0" cy="0" rx="6" ry="3" fill="#4A6FA5"/>
  </g>
  
  <!-- Artistic brush strokes -->
  <rect x="50" y="250" width="300" height="80" fill="url(#brushStroke)" opacity="0.5"/>
  
  <!-- Artist signature with more style -->
  <g transform="translate(200, 350)">
    <path d="M-30 0 Q-25 -3 -20 0 Q-15 3 -10 0 Q-5 -3 0 0 Q5 3 10 0 Q15 -3 20 0 Q25 3 30 0" 
          fill="none" stroke="#8B6B47" stroke-width="0.8" opacity="0.5"/>
    <text x="0" y="8" font-family="Georgia, serif" font-size="11" font-style="italic" 
          text-anchor="middle" fill="#8B6B47" opacity="0.6">McCluskey</text>
  </g>
</svg>